<?xml version="1.0" ?><!DOCTYPE svg  PUBLIC '-//W3C//DTD SVG 1.1//EN'  'http://www.w3.org/Graphics/SVG/1.1/DTD/svg11.dtd'><svg enable-background="new 0 0 489.597 524.424" height="524.424" id="レイヤー_1" overflow="visible" version="1.1" viewBox="0 0 489.597 524.424" width="489.597" xml:space="preserve" xmlns="http://www.w3.org/2000/svg" xmlns:xlink="http://www.w3.org/1999/xlink"><g id="タブレット"><path d="M133.339,59.13h178.79c30.26,0,54.789,20.77,54.789,46.39v365.014c0,25.62-24.529,46.391-54.789,46.391   h-178.79c-30.259,0-54.79-20.771-54.79-46.391V105.52C78.549,79.9,103.08,59.13,133.339,59.13z" opacity="0.39"/><path d="M161.876,37.512h178.788   c30.26,0,54.791,20.769,54.791,46.39v365.014c0,25.62-24.531,46.391-54.791,46.391H161.876c-30.26,0-54.79-20.771-54.79-46.391   V83.902C107.086,58.281,131.616,37.512,161.876,37.512z" fill="#FFFFFF" stroke="#000000" stroke-linejoin="round" stroke-width="15"/><rect fill="#D4D4D4" height="363.691" stroke="#000000" stroke-linejoin="round" stroke-width="15" width="207.266" x="146.136" y="80.748"/><rect fill="#A8A8A8" height="39.845" stroke="#000000" stroke-linejoin="round" stroke-width="9" width="42.687" x="171.825" y="188.994"/><rect fill="#FFFFFF" height="39.845" stroke="#000000" stroke-linejoin="round" stroke-width="9" width="42.686" x="230.566" y="190.015"/><rect fill="#FFFFFF" height="39.846" stroke="#000000" stroke-linejoin="round" stroke-width="9" width="42.687" x="171.825" y="246.654"/><rect fill="#FFFFFF" height="39.845" stroke="#000000" stroke-linejoin="round" stroke-width="9" width="42.686" x="231.646" y="300.917"/><rect fill="#FFFFFF" height="39.845" stroke="#000000" stroke-linejoin="round" stroke-width="9" width="42.686" x="292.208" y="188.994"/><rect fill="#878787" height="39.845" stroke="#000000" stroke-linejoin="round" stroke-width="9" width="42.686" x="232.164" y="245.129"/><rect height="26.511" width="195.497" x="151.071" y="83.663"/><rect fill="#FFFFFF" height="33.157" stroke="#000000" stroke-linejoin="round" stroke-width="7" width="171.782" x="165.378" y="126.789"/><rect fill="none" height="53.083" stroke="#000000" stroke-linejoin="round" stroke-width="9" width="200.14" x="152.147" y="392.942"/><rect fill="none" height="24.999" stroke="#000000" stroke-linejoin="round" stroke-width="9" width="32.5" x="235.57" y="404.5"/><g><line fill="none" stroke="#FFFFFF" stroke-linejoin="round" stroke-width="5" x1="313.105" x2="313.105" y1="90.757" y2="105.763"/><line fill="none" stroke="#FFFFFF" stroke-linejoin="round" stroke-width="5" x1="331.3" x2="331.3" y1="76.812" y2="105.492"/><line fill="none" stroke="#FFFFFF" stroke-linejoin="round" stroke-width="5" x1="322.539" x2="322.539" y1="85.231" y2="105.076"/></g><path d="M321.097,134h3.445   c0.844,0,1.527,0.684,1.527,1.526v13.946c0,0.843-0.684,1.527-1.527,1.527h-3.445c-0.844,0-1.527-0.685-1.527-1.527v-13.946   C319.57,134.684,320.253,134,321.097,134z" fill="#FFFFFF" stroke="#000000" stroke-linejoin="round" stroke-width="3"/><path d="M320.902,146h4.316   c1.057,0,1.914,0.894,1.914,1.997v4.506c0,1.103-0.857,1.997-1.914,1.997h-4.316c-1.059,0-1.914-0.895-1.914-1.997v-4.506   C318.988,146.894,319.843,146,320.902,146z" fill="#FFFFFF" stroke="#000000" stroke-linejoin="round" stroke-width="3"/></g></svg>